HIERARCHY
ROOT Game_engine
{
	OFFSET 	 0.0	 0.0	 0.0
	CHANNELS 6 Xposition Yposition Zposition Xrotation Yrotation Zrotation 
	JOINT Root
	{
		OFFSET 	 0.0	 0.0339374542236	 -1.05138683319
		CHANNELS 3 Xrotation Yrotation Zrotation 
		JOINT pelvis
		{
			OFFSET 	 10.7809247971	 0.347678780556	 0.0
			CHANNELS 3 Xrotation Yrotation Zrotation 
			JOINT spine_01
			{
				OFFSET 	 0.0	 1.00627378516	 -1.66886817698e-07
				CHANNELS 3 Xrotation Yrotation Zrotation 
				JOINT spine_02
				{
					OFFSET 	 0.0	 0.784746537454	 -1.16063961109e-07
					CHANNELS 3 Xrotation Yrotation Zrotation 
					JOINT spine_03
					{
						OFFSET 	 0.0	 0.716191049562	 -1.10969204492e-07
						CHANNELS 3 Xrotation Yrotation Zrotation 
						JOINT clavicle_l
						{
							OFFSET 	 0.256189521895	 2.83995130651	 1.08759012002
							CHANNELS 3 Xrotation Yrotation Zrotation 
							JOINT upperarm_l
							{
								OFFSET 	 9.5682201362e-07	 1.86598545531	 -2.37274608225e-08
								CHANNELS 3 Xrotation Yrotation Zrotation 
								JOINT lowerarm_l
								{
									OFFSET 	 -9.48830873426e-07	 2.87900723861	 7.63552739924e-08
									CHANNELS 3 Xrotation Yrotation Zrotation 
									JOINT hand_l
									{
										OFFSET 	 5.47395018202e-09	 2.99518328485	 1.27410526574e-10
										CHANNELS 3 Xrotation Yrotation Zrotation 
										JOINT index_01_l
										{
											OFFSET 	 -0.203181756969	 1.23161247267	 0.0746931719872
											CHANNELS 3 Xrotation Yrotation Zrotation 
											JOINT index_02_l
											{
												OFFSET 	 6.32972941617e-07	 0.303451502031	 7.08285304185e-07
												CHANNELS 3 Xrotation Yrotation Zrotation 
												JOINT index_03_l
												{
													OFFSET 	 -6.69645244145e-07	 0.270636988826	 -6.73919124949e-07
													CHANNELS 3 Xrotation Yrotation Zrotation 
													End Site
													{
														OFFSET 	 0	 0	 0
													}
												}
											}
										}
										JOINT middle_01_l
										{
											OFFSET 	 -0.0865603918272	 1.185687816	 -0.183202614235
											CHANNELS 3 Xrotation Yrotation Zrotation 
											JOINT middle_02_l
											{
												OFFSET 	 -4.08752426573e-07	 0.391242530764	 -8.51190922191e-07
												CHANNELS 3 Xrotation Yrotation Zrotation 
												JOINT middle_03_l
												{
													OFFSET 	 4.77986158209e-07	 0.322690202289	 8.17515459772e-07
													CHANNELS 3 Xrotation Yrotation Zrotation 
													End Site
													{
														OFFSET 	 0	 0	 0
													}
												}
											}
										}
										JOINT pinky_01_l
										{
											OFFSET 	 0.209170407061	 0.984011855447	 -0.473726615495
											CHANNELS 3 Xrotation Yrotation Zrotation 
											JOINT pinky_02_l
											{
												OFFSET 	 1.91988647202e-10	 0.25106397019	 4.25622204148e-10
												CHANNELS 3 Xrotation Yrotation Zrotation 
												JOINT pinky_03_l
												{
													OFFSET 	 -4.0247627453e-10	 0.181945589054	 5.32160981948e-11
													CHANNELS 3 Xrotation Yrotation Zrotation 
													End Site
													{
														OFFSET 	 0	 0	 0
													}
												}
											}
										}
										JOINT ring_01_l
										{
											OFFSET 	 0.0449828457351	 1.09318750402	 -0.36284102297
											CHANNELS 3 Xrotation Yrotation Zrotation 
											JOINT ring_02_l
											{
												OFFSET 	 2.91605196878e-07	 0.345689244135	 8.97795779053e-07
												CHANNELS 3 Xrotation Yrotation Zrotation 
												JOINT ring_03_l
												{
													OFFSET 	 1.15960752112e-09	 0.291289447909	 5.5210591654e-10
													CHANNELS 3 Xrotation Yrotation Zrotation 
													End Site
													{
														OFFSET 	 0	 0	 0
													}
												}
											}
										}
										JOINT thumb_01_l
										{
											OFFSET 	 -0.121134188405	 0.469170449457	 0.208615443138
											CHANNELS 3 Xrotation Yrotation Zrotation 
											JOINT thumb_02_l
											{
												OFFSET 	 8.83499845727e-07	 0.359463546462	 -3.9451083711e-07
												CHANNELS 3 Xrotation Yrotation Zrotation 
												JOINT thumb_03_l
												{
													OFFSET 	 -7.96777754886e-10	 0.427094625965	 -1.77141856739e-09
													CHANNELS 3 Xrotation Yrotation Zrotation 
													End Site
													{
														OFFSET 	 0	 0	 0
													}
												}
											}
										}
									}
								}
							}
						}
						JOINT clavicle_r
						{
							OFFSET 	 -0.25618952836	 2.83995130589	 1.0875901201
							CHANNELS 3 Xrotation Yrotation Zrotation 
							JOINT upperarm_r
							{
								OFFSET 	 -9.5682201362e-07	 1.86598545531	 -2.37274608225e-08
								CHANNELS 3 Xrotation Yrotation Zrotation 
								JOINT lowerarm_r
								{
									OFFSET 	 9.48830873426e-07	 2.87900723861	 7.63552739924e-08
									CHANNELS 3 Xrotation Yrotation Zrotation 
									JOINT hand_r
									{
										OFFSET 	 -9.3163668069e-07	 2.99518288281	 -1.66735374396e-07
										CHANNELS 3 Xrotation Yrotation Zrotation 
										JOINT index_01_r
										{
											OFFSET 	 0.20318467584	 1.23161198963	 0.0746921515634
											CHANNELS 3 Xrotation Yrotation Zrotation 
											JOINT index_02_r
											{
												OFFSET 	 6.48576303774e-10	 0.30345037356	 -2.65107047426e-10
												CHANNELS 3 Xrotation Yrotation Zrotation 
												JOINT index_03_r
												{
													OFFSET 	 6.69246636775e-07	 0.270638108172	 -6.73613920199e-07
													CHANNELS 3 Xrotation Yrotation Zrotation 
													End Site
													{
														OFFSET 	 0	 0	 0
													}
												}
											}
										}
										JOINT middle_01_r
										{
											OFFSET 	 0.0865631536829	 1.18568731757	 -0.183203768953
											CHANNELS 3 Xrotation Yrotation Zrotation 
											JOINT middle_02_r
											{
												OFFSET 	 -6.58011423127e-10	 0.391242803371	 1.70745551031e-09
												CHANNELS 3 Xrotation Yrotation Zrotation 
												JOINT middle_03_r
												{
													OFFSET 	 4.14716261332e-10	 0.322689973019	 3.70757646806e-10
													CHANNELS 3 Xrotation Yrotation Zrotation 
													End Site
													{
														OFFSET 	 0	 0	 0
													}
												}
											}
										}
										JOINT pinky_01_r
										{
											OFFSET 	 -0.209167963738	 0.984011841981	 -0.473727460166
											CHANNELS 3 Xrotation Yrotation Zrotation 
											JOINT pinky_02_r
											{
												OFFSET 	 3.09035137924e-07	 0.251063962359	 -9.01533429243e-07
												CHANNELS 3 Xrotation Yrotation Zrotation 
												JOINT pinky_03_r
												{
													OFFSET 	 3.42428149835e-07	 0.181945538364	 -8.89538412707e-07
													CHANNELS 3 Xrotation Yrotation Zrotation 
													End Site
													{
														OFFSET 	 0	 0	 0
													}
												}
											}
										}
										JOINT ring_01_r
										{
											OFFSET 	 -0.0449817420327	 1.09318737615	 -0.362840877239
											CHANNELS 3 Xrotation Yrotation Zrotation 
											JOINT ring_02_r
											{
												OFFSET 	 5.84669161974e-07	 0.345688751982	 -1.80098364666e-06
												CHANNELS 3 Xrotation Yrotation Zrotation 
												JOINT ring_03_r
												{
													OFFSET 	 -3.7757733562e-07	 0.291288726233	 8.67575572272e-07
													CHANNELS 3 Xrotation Yrotation Zrotation 
													End Site
													{
														OFFSET 	 0	 0	 0
													}
												}
											}
										}
										JOINT thumb_01_r
										{
											OFFSET 	 0.121136788704	 0.469170132495	 0.208613905488
											CHANNELS 3 Xrotation Yrotation Zrotation 
											JOINT thumb_02_r
											{
												OFFSET 	 -2.93618089842e-07	 0.359464476451	 -1.29502964796e-07
												CHANNELS 3 Xrotation Yrotation Zrotation 
												JOINT thumb_03_r
												{
													OFFSET 	 9.68370272858e-10	 0.427095449992	 3.95981025747e-09
													CHANNELS 3 Xrotation Yrotation Zrotation 
													End Site
													{
														OFFSET 	 0	 0	 0
													}
												}
											}
										}
									}
								}
							}
						}
						JOINT neck_01
						{
							OFFSET 	 -4.27600689049e-09	 3.69755427287	 1.01684196326
							CHANNELS 3 Xrotation Yrotation Zrotation 
							JOINT head
							{
								OFFSET 	 2.73402501946e-17	 1.06674118342	 -2.67354413275e-07
								CHANNELS 3 Xrotation Yrotation Zrotation 
								End Site
								{
									OFFSET 	 0	 0	 0
								}
							}
						}
					}
				}
			}
			JOINT thigh_l
			{
				OFFSET 	 1.24257910252	 -0.12128207549	 -0.167453759992
				CHANNELS 3 Xrotation Yrotation Zrotation 
				JOINT calf_l
				{
					OFFSET 	 9.25474119562e-09	 4.7373381478	 4.57734992132e-08
					CHANNELS 3 Xrotation Yrotation Zrotation 
					JOINT foot_l
					{
						OFFSET 	 2.19880313956e-09	 5.14141463265	 6.55346943379e-09
						CHANNELS 3 Xrotation Yrotation Zrotation 
						JOINT ball_l
						{
							OFFSET 	 -2.6406745679e-09	 1.63156575518	 4.73433400816e-08
							CHANNELS 3 Xrotation Yrotation Zrotation 
							End Site
							{
								OFFSET 	 0	 0	 0
							}
						}
					}
				}
			}
			JOINT thigh_r
			{
				OFFSET 	 -1.24257910252	 -0.12128207549	 -0.167453759992
				CHANNELS 3 Xrotation Yrotation Zrotation 
				JOINT calf_r
				{
					OFFSET 	 -3.70578101538e-09	 4.73733710424	 2.9665243928e-08
					CHANNELS 3 Xrotation Yrotation Zrotation 
					JOINT foot_r
					{
						OFFSET 	 -2.29081353886e-09	 5.14141463211	 -4.08163325361e-09
						CHANNELS 3 Xrotation Yrotation Zrotation 
						JOINT ball_r
						{
							OFFSET 	 -1.01539776587e-09	 1.63156542591	 1.70937830557e-09
							CHANNELS 3 Xrotation Yrotation Zrotation 
							End Site
							{
								OFFSET 	 0	 0	 0
							}
						}
					}
				}
			}
		}
	}
}

MOTION
Frames: 1
Frame Time: 0.013889
0.202552772072 9.0 -0.332890962529 -180.0 4.96480956201 180.0 -0.0 90.0 90.0 -90.1070550682 19.8358229532 -87.3867035418 27.250658691 -1.78268498037e-30 -6.45637423668e-31 -20.3910943705 -1.23033704023e-31 3.30985117559e-31 5.5636743999 -9.60256787979e-09 -6.88999871718e-08 19.0995235709 -1.89698903822 -118.971424961 39.1336512575 41.0596129673 -60.0018618165 44.1604586279 -1.35698153038e-15 9.00000003808e-06 15.7520870493 40.3904018915 -11.4362882249 -7.94147528672 17.41059723 -6.82764622421 -1.86257933735 -3.26074505427 -2.31131776612 5.18792399445 3.69823445981 -5.10077012591 -2.53646735147 32.9083165691 -11.1381671473 0.804227670473 -4.29039616714 3.69092974486 6.19024806301 5.09660810352 -5.13968050088 -8.36644109186 40.346409684 -6.93079199179 1.09214635657 -1.98871457453 2.54254950117 -0.413494000611 1.20020555012 -1.21566573579 -1.5817385296 40.4869365993 -12.2871006586 0.905437709738 -4.87212900716 5.09791151922 5.48763343327 5.88975294093 -5.82770884359 -140.086381364 39.2410353427 -153.933673579 68.9658577997 20.3553320956 -43.321752332 9.26494696465 18.063335568 9.09153298827 19.75164684 18.9426876955 101.550100135 37.2065904153 -24.0291024653 56.2533058184 49.0230753558 2.62302001531e-06 9.98010364569e-06 15.7521458331 -40.3903805291 11.4364416349 -7.94174378816 -17.4104326952 6.82736955981 -1.86205664918 3.26010731204 2.31155475658 5.18754725478 -3.69777696834 5.10054716188 -2.5364234276 -32.9083955727 11.1381391406 0.803931662731 4.2906267656 -3.69099581214 6.19052600356 -5.09679178253 5.13983470456 -8.36634759401 -40.3464300498 6.93089390514 1.09170705889 1.98883944793 -2.54282899169 -0.413274405692 -1.20025928134 1.2159166497 -1.58213659461 -40.4868888124 12.2867591196 0.905807056984 4.8719085347 -5.09790347623 5.48714482046 -5.8895158768 5.82762236068 -140.084371695 -39.2442959332 153.927240785 68.9501356851 -20.3390735938 43.318145428 9.26876819026 -18.0690071669 -9.08682470691 24.148754211 4.28088765885e-08 5.89418226878e-08 -15.4385669409 -5.64777178778e-09 -1.55974632117e-09 172.886387044 -15.256223623 -2.22784031909 23.9361247177 1.82798068698e-06 3.18853047924e-06 -61.0451207414 2.05081565034 3.59386738114 -31.0394038973 1.72624033837 1.5176201999 -149.566580956 18.40488896 6.89914991767 22.9915227928 2.76168778616e-06 2.82821521262e-06 -72.2308966127 -0.219945768348 -8.21636057981 -31.0393261264 -1.72623684959 -1.51762358472
